HIERARCHY
ROOT Hips
{
	OFFSET 0.000000 0.000000 0.000000
	CHANNELS 6 Xposition Yposition Zposition Zrotation Yrotation Xrotation 
	JOINT LHipJoint
	{
		OFFSET 0.000000 0.000000 0.000000
		CHANNELS 3 Zrotation Yrotation Xrotation
		JOINT LeftUpLeg
		{
			OFFSET 1.363060 -1.794630 0.839290
			CHANNELS 3 Zrotation Yrotation Xrotation
			JOINT LeftLeg
			{
				OFFSET 2.448110 -6.726130 0.000000
				CHANNELS 3 Zrotation Yrotation Xrotation
				JOINT LeftFoot
				{
					OFFSET 2.562200 -7.039590 0.000000
					CHANNELS 3 Zrotation Yrotation Xrotation
					JOINT LeftToeBase
					{
						OFFSET 0.157640 -0.433110 2.322550
						CHANNELS 3 Zrotation Yrotation Xrotation
						End Site
						{
							OFFSET 0.000000 0.000000 0.000000
						}
					}
				}
			}
		}
	}
	JOINT RHipJoint
	{
		OFFSET 0.000000 0.000000 0.000000
		CHANNELS 3 Zrotation Yrotation Xrotation
		JOINT RightUpLeg
		{
			OFFSET -1.305520 -1.794630 0.839290
			CHANNELS 3 Zrotation Yrotation Xrotation
			JOINT RightLeg
			{
				OFFSET -2.542530 -6.985550 0.000000
				CHANNELS 3 Zrotation Yrotation Xrotation
				JOINT RightFoot
				{
					OFFSET -2.568260 -7.056230 0.000000
					CHANNELS 3 Zrotation Yrotation Xrotation
					JOINT RightToeBase
					{
						OFFSET -0.164730 -0.452590 2.363150
						CHANNELS 3 Zrotation Yrotation Xrotation
						End Site
						{
							OFFSET 0.000000 0.000000 0.000000
						}
					}
				}
			}
		}
	}
	JOINT LowerBack
	{
		OFFSET 0.000000 0.000000 0.000000
		CHANNELS 3 Zrotation Yrotation Xrotation
		JOINT Spine
		{
			OFFSET 0.028270 2.035590 -0.193380
			CHANNELS 3 Zrotation Yrotation Xrotation
			JOINT Spine1
			{
				OFFSET 0.056720 2.048850 -0.042750
				CHANNELS 3 Zrotation Yrotation Xrotation
				JOINT Neck
				{
					OFFSET 0.000000 0.000000 0.000000
					CHANNELS 3 Zrotation Yrotation Xrotation
					JOINT Neck1
					{
						OFFSET -0.054170 1.746240 0.172020
						CHANNELS 3 Zrotation Yrotation Xrotation
						JOINT Head
						{
							OFFSET 0.104070 1.761360 -0.123970
							CHANNELS 3 Zrotation Yrotation Xrotation
							End Site
							{
								OFFSET 0.000000 0.000000 0.000000
							}
						}
					}
				}
				JOINT LeftShoulder
				{
					OFFSET 0.000000 0.000000 0.000000
					CHANNELS 3 Zrotation Yrotation Xrotation
					JOINT LeftArm
					{
						OFFSET 3.362410 1.200890 -0.311210
						CHANNELS 3 Zrotation Yrotation Xrotation
						JOINT LeftForeArm
						{
							OFFSET 4.983000 -0.000000 -0.000000
							CHANNELS 3 Zrotation Yrotation Xrotation
							JOINT LeftHand
							{
								OFFSET 3.483560 -0.000000 -0.000000
								CHANNELS 3 Zrotation Yrotation Xrotation
								JOINT LeftFingerBase
								{
									OFFSET 0.000000 0.000000 0.000000
									CHANNELS 3 Zrotation Yrotation Xrotation
									JOINT LeftHandIndex1
									{
										OFFSET 0.715260 -0.000000 -0.000000
										CHANNELS 3 Zrotation Yrotation Xrotation
										End Site
										{
											OFFSET 0.000000 0.000000 0.000000
										}
									}
								}
								JOINT LThumb
								{
									OFFSET 0.000000 0.000000 0.000000
									CHANNELS 3 Zrotation Yrotation Xrotation
									End Site
									{
										OFFSET 0.000000 0.000000 0.000000
									}
								}
							}
						}
					}
				}
				JOINT RightShoulder
				{
					OFFSET 0.000000 0.000000 0.000000
					CHANNELS 3 Zrotation Yrotation Xrotation
					JOINT RightArm
					{
						OFFSET -3.136600 1.374050 -0.404650
						CHANNELS 3 Zrotation Yrotation Xrotation
						JOINT RightForeArm
						{
							OFFSET -5.241900 -0.000000 -0.000000
							CHANNELS 3 Zrotation Yrotation Xrotation
							JOINT RightHand
							{
								OFFSET -3.444170 -0.000000 -0.000000
								CHANNELS 3 Zrotation Yrotation Xrotation
								JOINT RightFingerBase
								{
									OFFSET 0.000000 0.000000 0.000000
									CHANNELS 3 Zrotation Yrotation Xrotation
									JOINT RightHandIndex1
									{
										OFFSET -0.622530 -0.000000 -0.000000
										CHANNELS 3 Zrotation Yrotation Xrotation
										End Site
										{
											OFFSET 0.000000 0.000000 0.000000
										}
									}
								}
								JOINT RThumb
								{
									OFFSET 0.000000 0.000000 0.000000
									CHANNELS 3 Zrotation Yrotation Xrotation
									End Site
									{
										OFFSET 0.000000 0.000000 0.000000
									}
								}
							}
						}
					}
				}
			}
		}
	}
}
MOTION
Frames: 6
Frame Time: 0.008333
1.466428 17.358902 -0.172009 170.304106 -61.118643 -155.851907 -8.301916 0.384569 2.977595 -14.143176 -16.666327 -25.895733 0.557751 1.113170 39.287034 6.131304 37.504469 -0.367227 7.060800 0.000000 -36.338500 9.519987 -0.696286 3.307795 7.836877 12.569058 -17.911911 1.379904 0.154613 11.681458 -2.271074 -9.116984 -7.997541 -0.610500 0.000000 -42.867900 -3.298617 -0.140876 -5.730105 -1.699010 -0.160119 -3.418567 -7.989700 -0.045111 2.376241 8.814075 -12.290073 -7.559144 -2.353842 -0.184843 0.017661 0.000000 0.000000 0.000000 -5.284146 20.087404 1.179537 -67.361658 3.868169 -11.313234 -3.325482 -28.127613 0.015833 9.504723 -3.485568 -0.286606 -0.078873 -0.061073 -0.000000 0.000000 0.000000 0.000000 0.000000 0.000000 0.000000 3.846330 -7.238247 -5.047319 86.685995 17.575680 31.828630 -179.103606 65.863845 179.847379 -14.566083 18.363052 -2.555196 0.290933 -1.059294 -0.000000 0.000000 0.000000 0.000000 0.000000 0.000000 0.000000 
1.478984 17.356166 -0.177182 170.145519 -60.641997 -155.672121 -8.260268 0.274939 3.170188 -13.959592 -18.321938 -26.966314 0.694257 1.270404 41.896972 5.997824 37.134721 1.021685 7.847500 0.000000 -37.091300 9.586883 -0.625530 3.233041 7.584425 12.643244 -18.190666 1.356238 0.089206 12.216658 -2.221354 -8.838760 -8.107531 -0.566801 0.000000 -43.247400 -3.350712 -0.076849 -5.758489 -1.713148 -0.093698 -3.420152 -7.981948 0.021040 2.393902 8.713921 -12.262420 -7.596732 -2.342970 -0.183484 0.005216 0.000000 0.000000 0.000000 -5.417270 20.359484 1.169445 -67.388738 3.896277 -11.542664 -3.326248 -28.126347 0.015946 9.451135 -3.449687 -0.281909 -0.078459 -0.062600 -0.000000 0.000000 0.000000 0.000000 0.000000 0.000000 0.000000 3.685069 -7.163796 -5.076863 86.710224 17.725754 31.827001 -179.086465 65.630912 179.846592 -14.575153 18.346791 -2.555194 0.291638 -1.062490 -0.000000 0.000000 0.000000 0.000000 0.000000 0.000000 0.000000 
1.491060 17.352755 -0.180376 170.021439 -60.162200 -155.533834 -8.230191 0.163650 3.356773 -13.766876 -19.907980 -28.066326 0.829881 1.425264 44.537611 5.837465 36.576100 2.491064 8.581300 0.000000 -37.601501 9.651763 -0.558593 3.150414 7.353042 12.662397 -18.468434 1.341545 0.024009 12.750178 -2.157397 -8.496043 -8.205417 -0.522400 -0.000000 -43.699300 -3.382654 -0.004195 -5.775756 -1.723937 -0.020119 -3.421132 -7.972067 0.094269 2.408131 8.611602 -12.233262 -7.631285 -2.332774 -0.182213 -0.006487 0.000000 0.000000 0.000000 -5.547213 20.623049 1.159054 -67.440735 3.923779 -11.762352 -3.323837 -28.135399 0.016055 9.401951 -3.419157 -0.277713 -0.077943 -0.064080 -0.000000 0.000000 0.000000 0.000000 0.000000 0.000000 0.000000 3.524580 -7.083688 -5.106603 86.706927 17.889902 31.798531 -179.069729 65.397605 179.845753 -14.588291 18.324457 -2.554996 0.292374 -1.065459 -0.000000 0.000000 0.000000 0.000000 0.000000 0.000000 0.000000 
1.502767 17.348746 -0.181823 169.926947 -59.676204 -155.433964 -8.210567 0.050166 3.533982 -13.576679 -21.404387 -29.183140 0.964983 1.575415 47.174967 5.660377 35.882152 4.058105 9.274600 0.000000 -38.068000 9.714944 -0.495596 3.061592 7.141461 12.631978 -18.742384 1.335136 -0.040772 13.278791 -2.080068 -8.092333 -8.290349 -0.478000 0.000000 -44.216500 -3.397710 0.077058 -5.780898 -1.732139 0.060895 -3.421455 -7.960669 0.174872 2.418411 8.509653 -12.201119 -7.661671 -2.323699 -0.181083 -0.017146 0.000000 0.000000 0.000000 -5.669844 20.874806 1.148689 -67.518933 3.954565 -11.975720 -3.318039 -28.154850 0.016159 9.359084 -3.392584 -0.274118 -0.077308 -0.065514 -0.000000 0.000000 0.000000 0.000000 0.000000 0.000000 0.000000 3.368691 -6.996283 -5.136086 86.675843 18.067930 31.744635 -179.053264 65.162561 179.844833 -14.609916 18.295426 -2.555399 0.293320 -1.068237 -0.000000 0.000000 0.000000 0.000000 0.000000 0.000000 0.000000 
1.514113 17.344258 -0.181596 169.864814 -59.183119 -155.375137 -8.200920 -0.065238 3.696792 -13.401545 -22.784009 -30.308708 1.098280 1.719984 49.789086 5.475040 35.082140 5.688263 9.903600 -0.000000 -38.358000 9.775621 -0.437056 2.969890 6.949313 12.563477 -19.009897 1.336209 -0.104538 13.797523 -1.991632 -7.637443 -8.362614 -0.434500 0.000000 -44.773200 -3.397883 0.166391 -5.773306 -1.738207 0.149019 -3.420982 -7.948282 0.262539 2.424848 8.410326 -12.164133 -7.687421 -2.316160 -0.180130 -0.026634 0.000000 0.000000 0.000000 -5.781959 21.115559 1.138630 -67.623257 3.989826 -12.184389 -3.308926 -28.182620 0.016262 9.323933 -3.369362 -0.271121 -0.076558 -0.066899 -0.000000 0.000000 0.000000 0.000000 0.000000 0.000000 0.000000 3.221969 -6.899835 -5.165117 86.616543 18.260390 31.667930 -179.037312 64.929544 179.843825 -14.643486 18.260619 -2.557102 0.294612 -1.070814 -0.000000 0.000000 0.000000 0.000000 0.000000 0.000000 0.000000 
1.525202 17.339396 -0.180176 169.826152 -58.681172 -155.346938 -8.199229 -0.182276 3.842230 -13.255118 -24.028573 -31.438143 1.228738 1.857869 52.359667 5.290460 34.217517 7.361436 10.465100 0.000000 -38.479200 9.834565 -0.383015 2.879320 6.771113 12.468445 -19.273549 1.342898 -0.167002 14.304862 -1.894521 -7.141788 -8.422482 -0.392600 -0.000000 -45.366600 -3.389618 0.262280 -5.755414 -1.743412 0.243212 -3.420038 -7.935722 0.356218 2.427850 8.316923 -12.121372 -7.708004 -2.310612 -0.179404 -0.034782 0.000000 0.000000 0.000000 -5.878880 21.343940 1.129166 -67.751856 4.033316 -12.388066 -3.296749 -28.219953 0.016360 9.296781 -3.348291 -0.268425 -0.075709 -0.068236 -0.000000 0.000000 0.000000 0.000000 0.000000 0.000000 0.000000 3.089790 -6.794066 -5.193220 86.531921 18.467844 31.572782 -179.022231 64.699609 179.842742 -14.689801 18.221085 -2.560402 0.296353 -1.073249 -0.000000 0.000000 0.000000 0.000000 0.000000 0.000000 0.000000 
